<svg xmlns="http://www.w3.org/2000/svg" 
viewBox="0 0 1008.88 404.09"><defs><style>.a{fill:#4f4f4f;}.b{fill:none;}.c{fill:#008d36;}</style></defs><title>2a.nz</title><path class="a" d="M1103,1171.52h-40.72c-3.83,0-7.31,2.79-7.31,6.62V1222a7.29,7.29,0,0,0,7.31,7H1103a7,7,0,0,0,7-7v-43.85A6.7,6.7,0,0,0,1103,1171.52Z" transform="translate(-475.51 -825.99)"/><path class="a" d="M1233.82,1026.73h-17.4c-50.12,0-76.93,24.36-76.93,72.4v122.51c0,3.83,2.79,7.31,6.62,7.31h42.81a7.29,7.29,0,0,0,7-7.31V1099.13c0-15.32,2.44-26.11,20.54-26.11h17.4c18.1,0,20.53,10.79,20.53,26.11v122.51a7.29,7.29,0,0,0,7,7.31h42.81c3.83,0,6.61-3.48,6.61-7.31V1099.13C1310.74,1051.09,1283.94,1026.73,1233.82,1026.73Z" transform="translate(-475.51 -825.99)"/><path class="a" d="M1478.12,1181.62h-68.91c-1.39,0-2.44-.7-2.44-1.4a4.6,4.6,0,0,1,1-2.43l72-98.5a20.53,20.53,0,0,0,3.83-12.19v-25.75c0-6.27-5.22-11.84-11.48-11.84h-127a7,7,0,0,0-7,7v32.71c0,3.48,2.44,5.57,5.92,5.57h70c1.39,0,2.44.7,2.44,1.74a4.63,4.63,0,0,1-1,2.44l-75.53,103c-3.48,4.87-4.87,8.35-4.87,13.22v22.28c0,6.26,5.57,11.48,11.84,11.48h130.52a7,7,0,0,0,7-7v-34.8C1484.39,1183.71,1481.6,1181.62,1478.12,1181.62Z" transform="translate(-475.51 -825.99)"/><path class="a" d="M912.08,885.61c42.35,2,75,14.69,94.47,41h477.84V885.3H912.08Z" transform="translate(-475.51 -825.99)"/><path class="a" d="M1026.32,985.45h458.07V944.12H1016.62C1021.81,955.91,1025.11,969.62,1026.32,985.45Z" transform="translate(-475.51 -825.99)"/><path class="a" d="M681.93,826c19.8,6.61,41.24,16.7,51,30.32a75,75,0,0,1,6.52,11h744.91V826Z" transform="translate(-475.51 -825.99)"/><path class="b" d="M923.73,1149.34h0c-1.69.84-3.4,1.67-5.15,2.46C920.33,1151,922,1150.18,923.73,1149.34Z" transform="translate(-475.51 -825.99)"/><path class="b" d="M846.61,1151.76a18.07,18.07,0,0,1-1.38-2.45A18.07,18.07,0,0,0,846.61,1151.76Z" transform="translate(-475.51 -825.99)"/><path class="b" d="M848.26,1153.88c5.68,6.22,15.51,7.8,29.49,7.8a77.94,77.94,0,0,0,9.34-.57,77.94,77.94,0,0,1-9.34.57C863.77,1161.68,853.94,1160.1,848.26,1153.88Z" transform="translate(-475.51 -825.99)"/><path class="b" d="M899.09,1158.83c-2.93.76-5.92,1.39-9,1.87C893.17,1160.22,896.16,1159.59,899.09,1158.83Z" transform="translate(-475.51 -825.99)"/><path class="b" d="M858.91,1093.38a30.15,30.15,0,0,0-5.08,3.22,25.76,25.76,0,0,0-6.13,7,27.13,27.13,0,0,0-1.73,3.35,34.84,34.84,0,0,0-1.35,3.68c-.39,1.29-.72,2.62-1,4a72.1,72.1,0,0,0-1.19,14v5a53.34,53.34,0,0,0,.55,8,27.62,27.62,0,0,0,2.25,7.7,18.07,18.07,0,0,0,1.38,2.45,16.45,16.45,0,0,0,1.65,2.12c5.68,6.22,15.51,7.8,29.49,7.8a77.94,77.94,0,0,0,9.34-.57c1-.12,2-.26,3-.41,3-.48,6-1.11,9-1.87a119.41,119.41,0,0,0,19.49-7c1.75-.79,3.46-1.62,5.15-2.46v-61.67h-32C877.05,1087.67,866.43,1089.56,858.91,1093.38Z" transform="translate(-475.51 -825.99)"/><path class="c" d="M1002.32,958.12a90.49,90.49,0,0,0-10.38-17.5c-20.06-26.32-53.72-39-97.36-41-4.22-.2-8.51-.31-12.9-.31-37,0-76.25,6.73-97,11.77C778,912.75,774,917.24,774,923.41v45.41c0,7.29,4.49,10.09,10.1,10.09h2.8C804.31,977.23,844.11,975,880,975a95,95,0,0,1,14.58,1c13.72,2.18,22.84,8.48,26.11,23.49a66.8,66.8,0,0,1,1.35,14.22v20.18H891.77c-95.87,0-137.92,29.15-137.92,94.75v5c0,72.89,47.1,96.43,95.87,96.43,33.64,0,56.06-9.53,77.93-25.22v9A11.25,11.25,0,0,0,938.86,1225h62.79a11.25,11.25,0,0,0,11.22-11.21V1013.67c0-4.92-.2-9.65-.56-14.22C1011.07,983.62,1007.66,969.91,1002.32,958.12Zm-78.59,129.55v61.67h0c-1.69.84-3.4,1.67-5.15,2.46a119.41,119.41,0,0,1-19.49,7c-2.93.76-5.92,1.39-9,1.87-1,.15-2,.29-3,.41a77.94,77.94,0,0,1-9.34.57c-14,0-23.81-1.58-29.49-7.8a16.45,16.45,0,0,1-1.65-2.12,18.07,18.07,0,0,1-1.38-2.45,27.62,27.62,0,0,1-2.25-7.7,53.34,53.34,0,0,1-.55-8h0v-5a72.1,72.1,0,0,1,1.19-14c.28-1.39.61-2.72,1-4a34.84,34.84,0,0,1,1.35-3.68,27.13,27.13,0,0,1,1.73-3.35,25.76,25.76,0,0,1,6.13-7,30.15,30.15,0,0,1,5.08-3.22c7.52-3.82,18.14-5.71,32.86-5.71Z" transform="translate(-475.51 -825.99)"/><path class="c" d="M858.91,1093.38c7.52-3.82,18.14-5.71,32.86-5.71h0C877.05,1087.67,866.43,1089.56,858.91,1093.38Z" transform="translate(-475.51 -825.99)"/><path class="c" d="M853.83,1096.6a25.76,25.76,0,0,0-6.13,7A25.76,25.76,0,0,1,853.83,1096.6Z" transform="translate(-475.51 -825.99)"/><path class="c" d="M843.62,1114.62c.28-1.39.61-2.72,1-4C844.23,1111.9,843.9,1113.23,843.62,1114.62Z" transform="translate(-475.51 -825.99)"/><path class="c" d="M853.83,1096.6a30.15,30.15,0,0,1,5.08-3.22A30.15,30.15,0,0,0,853.83,1096.6Z" transform="translate(-475.51 -825.99)"/><path class="c" d="M842.43,1133.64a53.34,53.34,0,0,0,.55,8,53.34,53.34,0,0,1-.55-8Z" transform="translate(-475.51 -825.99)"/><path class="c" d="M846,1106.93a27.13,27.13,0,0,1,1.73-3.35A27.13,27.13,0,0,0,846,1106.93Z" transform="translate(-475.51 -825.99)"/><path class="c" d="M844.62,1110.61a34.84,34.84,0,0,1,1.35-3.68A34.84,34.84,0,0,0,844.62,1110.61Z" transform="translate(-475.51 -825.99)"/><path class="b" d="M562.84,834.32a78.42,78.42,0,0,0-15.53,6.46c3.52-1.47,7-3,10.55-4.43C559.52,835.66,561.18,835,562.84,834.32Z" transform="translate(-475.51 -825.99)"/><path class="c" d="M722.48,1153.53H554.65v-2.12c0-37.18,31.87-60,77-90.29l45.15-30.28c39.3-26.55,61.08-56.83,61.08-99.85,0-19.83-3.23-36.7-10.2-50.68a75,75,0,0,0-6.68-11C711,855.69,696.2,845.6,675.93,839a169.84,169.84,0,0,0-25.35-6l.14,0-.74-.11c-1.18-.19-2.37-.38-3.57-.55l-1.06-.14c-1.23-.18-2.48-.34-3.74-.49l-1-.13-3.91-.43-1-.1-4.17-.38-.46,0h.1c-8.93-.73-18.47-1.11-28.69-1.11-5.28,0-10.65.15-16.06.41a111.45,111.45,0,0,0-23.55,4.37c-1.66.67-3.32,1.34-5,2-3.52,1.46-7,3-10.55,4.43a2.63,2.63,0,0,0-1.25,1.75c-.15.87.55,1.45,1.4,1.76a26.15,26.15,0,0,1,11.66,8.36c1,1.24,1.48,1.31,2.94.72l5.65-2.32,6.75-2.77c3.48-1.42,6.12-.34,7.53,3.1l.17.41,4.53,11c1.42,3.48.33,6.12-3.12,7.54L556.1,881.63l-9.41,3.86c-3.4,1.4-6,.29-7.43-3.12v0c-1.58-3.83-3.14-7.68-4.73-11.51-.47-1.14-1-1.64-1.86-1.62a3.51,3.51,0,0,0-1.25.3q-5.77,2.36-11.54,4.74c-1.74.72-2,1.45-1.34,3.17,1.62,4,3.23,7.92,4.88,11.87a22.18,22.18,0,0,0,26.22,13.4q10.5-.47,21-1l7.87-.34h-.13l-.29.12c5.62-.18,11.12-.28,16.4-.28,43,0,56.3,9,56.3,31.86,0,25-8,29.22-54.17,61.61l-48.87,34.53c-40.36,28.68-72.23,76.48-72.23,134.91v54.17A10.65,10.65,0,0,0,486.13,1229H722.48a10.65,10.65,0,0,0,10.63-10.62v-54.71C733.11,1157.78,728.33,1153.53,722.48,1153.53Z" transform="translate(-475.51 -825.99)"/><path class="a" d="M485.63,905.6c2.36,5.48,6.39,9.36,13.84,12.53,3.13,1.29,8.7,1.61,13.82-.36,7.54-2.9,15-6,22.47-9.09a1.93,1.93,0,0,0,1.38-1.83,1.88,1.88,0,0,0-1.45-1.77,26.14,26.14,0,0,1-7.58-4.27,26.75,26.75,0,0,1-4.08-4.09c-1-1.23-1.48-1.31-2.94-.71l-.14.06c-4.13,1.68-8.24,3.39-12.37,5.07-3.34,1.36-6,.25-7.38-3.06q-2.4-5.82-4.78-11.65c-1.35-3.32-.25-6,3.07-7.36l12.6-5.18,20.4-8.38,4-1.63c3.38-1.39,6-.27,7.42,3.14,1.6,3.88,3.18,7.76,4.79,11.64.6,1.45,1.46,1.85,2.85,1.28q6.06-2.45,12.08-5a1.81,1.81,0,0,0,1.13-2.72c-1.86-4.53-3.62-9.1-5.65-13.55a21.14,21.14,0,0,0-11.93-11.16,22.5,22.5,0,0,0-17.56.43c-7.42,3.1-14.88,6.11-22.31,9.18-5.43,2.24-10.91,4.35-16.23,6.8A22,22,0,0,0,479.7,890.9C481.47,895.88,483.55,900.75,485.63,905.6Z" transform="translate(-475.51 -825.99)"/></svg>