<svg version="1" xmlns="http://www.w3.org/2000/svg" width="933.333" height="933.333" viewBox="0 0 700.000000 700.000000"><path d="M323 1.1c-70.3 5.7-137.2 32.1-191.5 75.6-14.1 11.2-37.1 33.7-49 47.8-21.4 25.4-39.1 53.7-52.3 83.5C-.2 277-7.7 352.6 8.6 426.3 39.2 564.5 152.5 671.9 292 694.9c22.7 3.8 32.2 4.5 58 4.5 25.8 0 35.3-.7 58-4.5 98.3-16.2 185.5-74.7 239.2-160.4 17.7-28.2 32.9-63.5 41.3-96.3 27.8-107 3.6-220.5-65.2-306.7-18.2-22.8-46-49.1-70-66.3C487 17.8 403.6-5.4 323 1.1zm-57.3 174.4c37 4.8 59.7 18.1 70.4 41 5.9 12.9 7.4 20.6 7.4 39 0 12.4-.4 17.6-1.9 23-5.2 19.6-17.1 36.6-36.1 51.6-3.8 3.1-19.6 14.1-35 24.4-15.4 10.4-32.9 22.5-39 27.1-24.4 18.2-35.6 33.6-37.2 51.1l-.6 6.3h69.7c71.7 0 72.3 0 75.3 3.9 1.8 2.3 1.8 51.9 0 54.2-3 3.9-2.5 3.9-104.7 3.9h-99.2l-2.9-2.9-2.9-2.9v-28.4c0-29.6 1-40.4 4.9-54.3 4.6-16.2 13.7-33.4 25.5-48.1 11.5-14.3 18.6-20.1 58.1-47.9 49.8-34.9 52.5-37.5 54.5-51.7 1.8-12.6-2.1-22.7-10.3-26.7-9.5-4.6-16.8-5.3-51.3-4.9l-32 .3-3.9-2.9c-2.6-2-4.8-5.2-7.1-10.2-1.9-4-3.4-7.8-3.4-8.4 0-1 9.9-6 11.9-6 .5 0 2.1 2.9 3.6 6.5 1.5 3.5 3.6 6.7 4.5 7 2.2.7 34.9-12.6 36.1-14.6.4-.8-.4-4.3-2-8.4-3.1-8.2-4.7-8.9-12.5-5.5-6.3 2.7-7.7 2.5-11-.9-1.6-1.6-3.9-3.2-5.2-3.5-3.2-.8-3-3.2.4-4.9 3.7-1.9 14.9-5.6 20.3-6.6 7.6-1.5 42.8-1.2 55.6.4zm-77.2 13.4c2.2 1 5 2.9 6.2 4.3 2.3 2.4 7.3 13.6 7.3 16.1 0 1.2-9.1 5.7-11.6 5.7-.6 0-2.2-2.7-3.5-6.1-1.3-3.3-3.2-6.5-4.1-7-1.3-.7-6 .8-18 5.8-18.1 7.4-18.8 7.8-18.8 10.4 0 2.8 5 13.7 6.7 14.3.7.3 4.2-.5 7.5-1.9 7.5-3.1 7.9-3.1 10.7-.1 1.2 1.3 3.8 3.2 5.7 4.2 1.9 1 3.3 2.3 3.1 2.8-.5 1.6-22.1 9.5-26 9.6-7.9 0-14.2-5.3-18.4-15.5-5.4-12.8-5-18.7 1.5-25.6 3.1-3.3 6.8-5.2 22.2-11.4 19.8-8 23-8.6 29.5-5.6zm297 43.2c27.3 3.3 46.3 11.4 60.5 25.8 9 9.2 14.1 17.5 18 29.8 5.5 17.2 5.5 16.5 5.5 114.1v90.4l-3.3 2.9-3.2 2.9h-56.8l-3.1-2.6c-2.8-2.3-3.1-3.2-3.1-8 0-3-.3-5.4-.6-5.4-.4 0-3.4 1.7-6.8 3.9-19.3 12.2-39 17.1-63 15.8-37-2-60.9-20.2-69.8-53.2-1.8-6.8-2.1-10.8-2.2-26.5 0-21.1 1.1-27.8 7-39.6 14.3-28.9 47.6-41.4 111.2-41.4H495v-11c0-11.2-1.2-19.5-3.5-24.1-2.2-4.2-7.5-8.7-12.4-10.5-8.5-3-34.4-3-89.7.2-16.2 1-15.4 2.4-15.4-26.4v-22.8l2.8-2.7c8.4-8.1 77.2-15.4 108.7-11.6z"/><path d="M458.5 386c-9.6 1.1-16.3 3.8-20.9 8.4-5.3 5.2-6.7 9.6-7.3 22.6-1 20.7 3.7 26.8 21.8 28.5 11.9 1.1 27.7-2 40.2-8.1l3.7-1.8V385l-15.7.1c-8.7.1-18.5.5-21.8.9z"/></svg>